#N canvas 0 36 1024 672 12;
#X obj 1 1 cnv 20 1920 1080 empty empty Le\ téléphone\ sonne 20 48 0 52 #fbe1e8 #404040 0;
#X obj 27 109 cnv 20 500 800 empty empty Toutes\ les\ 3\ minutes 20 28 0 28 #e0e0e0 #404040 0;
#X obj 542 111 cnv 20 500 800 empty empty Quelqu'un\ décroche 20 28 0 28 #e0e0e0 #404040 0;
#X obj 1054 111 cnv 20 500 800 empty empty Et\ on\ recommence 20 28 0 28 #e0e0e0 #404040 0;
#X text 625 37 GPIO 21 / broche 40 pour le pilotage du relais sonnerie et lumière \, le GPIO23 / broche 16 pour la récupération du combiné décroché ou non \, et le GPIO 24 / broche 18 pour la bouton Repeat;
#X floatatom 58 371 4 0 0 0 - - - 0;
#X floatatom 106 372 5 0 0 0 - - - 0;
#X obj 106 391 bng 15 250 50 0 empty empty empty 17 7 0 10 #fcfcfc #000000 #000000;
#X obj 63 509 tgl 42 0 empty empty empty 17 7 0 10 #ff0400 #000000 #000000 0 1;
#X obj 164 654 f;
#X obj 196 653 + 1;
#X obj 164 709 t b b;
#X msg 114 523 0;
#X floatatom 116 711 5 0 0 0 - - - 0;
#X obj 63 594 t b b;
#X msg 1108 501 open audio/0.wav;
#X msg 1203 538 start;
#X msg 1216 564 stop;
#X text 1248 538 start playback;
#X text 1255 564 stop playback;
#X obj 1105 695 dac~ 1 2;
#X obj 1107 631 *~ 1;
#X obj 1144 630 *~ 1;
#X obj 1106 665 hip~ 5;
#X obj 1157 663 hip~ 5;
#X obj 1108 595 readsf~ 2;
#X floatatom 1076 297 4 0 0 0 - - - 0;
#X obj 1076 198 tgl 15 0 empty empty empty 17 7 0 10 #fcfcfc #000000 #000000 0 1;
#X obj 1076 320 change;
#X obj 1076 344 sel 0;
#X text 1076 166 BOUTON REPEAT;
#X obj 1076 373 bng 42 250 50 0 empty empty empty 0 -10 0 12 #ff8300 #000000 #000000;
#X obj 1076 428 t b b;
#X floatatom 578 317 4 0 0 0 - - - 0;
#X obj 578 218 tgl 15 0 empty empty empty 17 7 0 10 #fcfcfc #000000 #000000 0 1;
#X obj 578 340 change;
#X text 573 187 COMBINÉ DÉCROCHÉ;
#X obj 578 370 tgl 42 0 empty empty empty 0 -10 0 12 #c6ffc7 #000000 #000000 0 1;
#X obj 603 213 loadbang;
#X obj 1096 194 loadbang;
#X msg 1085 49 \; pd dsp 1;
#X obj 1085 19 loadbang;
#X obj 63 566 metro 2000;
#X obj 230 654 % 11;
#X obj 164 684 sel 10;
#X obj 58 202 bng 42 250 50 0 empty empty empty 0 -10 0 12 #ff0400 #000000 #000000;
#X text 214 683 va jusqu'a 10;
#X obj 1738 516 loadbang;
#X obj 1735 571 tgl 20 0 empty empty empty 0 -10 0 12 #fcfcfc #000000 #000000 0 1;
#X obj 1734 623 bng 20 250 50 0 empty empty empty 0 -10 0 12 #fcfcfc #000000 #000000;
#X obj 1734 656 f;
#X obj 1767 655 + 1;
#X obj 1800 655 % 181;
#X floatatom 1734 683 5 0 0 0 - - - 0;
#X obj 1734 725 sel 0 180;
#X obj 1734 848 bng 20 250 50 0 empty empty empty 0 -10 0 12 #fcfcfc #000000 #000000;
#X obj 1771 850 bng 20 250 50 0 empty empty empty 0 -10 0 12 #fcfcfc #000000 #000000;
#X msg 1766 627 0;
#X text 56 178 FAIRE SONNER LE TÉLÉPHONE 1 FOIS;
#X text 62 479 FAIRE SONNER LE TELEPHONE 10 FOIS;
#X obj 1735 599 metro 1000;
#X obj 58 348 ggee/shell;
#X obj 578 294 ggee/shell;
#X obj 1076 274 ggee/shell;
#X msg 1076 248 gpioget --bias=pull-up 0 24;
#X obj 1076 222 metro 100;
#X obj 578 244 metro 100;
#X msg 578 270 gpioget --bias=pull-up 0 23;
#X obj 58 277 t a b;
#X msg 58 250 gpioset --drive=open-drain gpiochip0 21=0;
#X msg 89 324 gpioset --drive=open-drain gpiochip0 21=1;
#X floatatom 63 870 4 0 0 0 - - - 0;
#X floatatom 111 871 5 0 0 0 - - - 0;
#X obj 111 890 bng 15 250 50 0 empty empty empty 17 7 0 10 #fcfcfc #000000 #000000;
#X obj 63 847 ggee/shell;
#X obj 63 776 t a b;
#X msg 63 749 gpioset --drive=open-drain gpiochip0 21=0;
#X msg 94 823 gpioset --drive=open-drain gpiochip0 21=1;
#X obj 94 800 delay 1000;
#X obj 89 301 delay 1000;
#X connect 6 0 7 0;
#X connect 8 0 42 0;
#X connect 9 0 13 0;
#X connect 9 0 10 0;
#X connect 9 0 44 0;
#X connect 10 0 43 0;
#X connect 11 1 12 0;
#X connect 12 0 8 0;
#X connect 14 0 76 0;
#X connect 14 1 9 0;
#X connect 15 0 25 0;
#X connect 16 0 25 0;
#X connect 17 0 25 0;
#X connect 21 0 23 0;
#X connect 22 0 24 0;
#X connect 23 0 20 0;
#X connect 24 0 20 1;
#X connect 25 0 21 0;
#X connect 25 1 22 0;
#X connect 26 0 28 0;
#X connect 27 0 65 0;
#X connect 28 0 29 0;
#X connect 29 0 31 0;
#X connect 31 0 32 0;
#X connect 32 0 16 0;
#X connect 32 1 15 0;
#X connect 33 0 35 0;
#X connect 34 0 66 0;
#X connect 35 0 37 0;
#X connect 38 0 34 0;
#X connect 39 0 27 0;
#X connect 41 0 40 0;
#X connect 42 0 14 0;
#X connect 43 0 9 1;
#X connect 44 0 11 0;
#X connect 45 0 69 0;
#X connect 48 0 60 0;
#X connect 49 0 50 0;
#X connect 50 0 51 0;
#X connect 50 0 53 0;
#X connect 51 0 52 0;
#X connect 52 0 50 1;
#X connect 53 0 54 0;
#X connect 54 1 56 0;
#X connect 56 0 57 0;
#X connect 57 0 50 1;
#X connect 60 0 49 0;
#X connect 61 0 5 0;
#X connect 61 1 6 0;
#X connect 62 0 33 0;
#X connect 63 0 26 0;
#X connect 64 0 63 0;
#X connect 65 0 64 0;
#X connect 66 0 67 0;
#X connect 67 0 62 0;
#X connect 68 0 61 0;
#X connect 68 1 79 0;
#X connect 69 0 68 0;
#X connect 70 0 61 0;
#X connect 72 0 73 0;
#X connect 74 0 71 0;
#X connect 74 1 72 0;
#X connect 75 0 74 0;
#X connect 75 1 78 0;
#X connect 76 0 75 0;
#X connect 77 0 74 0;
#X connect 78 0 77 0;
#X connect 79 0 70 0;
