#N canvas 493 0 1416 992 12;
#X obj 1 1 cnv 20 1920 1080 empty empty Le\ téléphone\ sonne 20 48 0 52 #fbe1e8 #404040 0;
#X obj 27 109 cnv 20 500 800 empty empty Toutes\ les\ 3\ minutes 20 28 0 28 #e0e0e0 #404040 0;
#X obj 542 111 cnv 20 500 800 empty empty Quelqu'un\ décroche 20 28 0 28 #e0e0e0 #404040 0;
#X obj 1054 111 cnv 20 500 800 empty empty Et\ on\ recommence 20 28 0 28 #e0e0e0 #404040 0;
#X text 625 37 GPIO 21 / broche 40 pour le pilotage du relais sonnerie et lumière \, le GPIO23 / broche 16 pour la récupération du combiné décroché ou non \, et le GPIO 24 / broche 18 pour la bouton Repeat;
#X floatatom 574 859 4 0 0 0 - - - 0;
#X floatatom 622 860 5 0 0 0 - - - 0;
#X obj 622 879 bng 15 250 50 0 empty empty empty 17 7 0 10 #fcfcfc #000000 #000000;
#X obj 63 603 tgl 42 0 empty empty empty 17 7 0 10 #ff0400 #000000 #000000 0 1;
#X obj 172 659 f;
#X obj 204 658 + 1;
#X obj 172 714 t b b;
#X msg 114 617 0;
#X floatatom 124 716 5 0 0 0 - - - 0;
#X obj 63 688 t b b;
#X msg 1203 689 start;
#X msg 1216 715 stop;
#X text 1248 689 start playback;
#X text 1255 715 stop playback;
#X obj 1105 846 dac~ 1 2;
#X obj 1107 782 *~ 1;
#X obj 1144 781 *~ 1;
#X obj 1106 816 hip~ 5;
#X obj 1157 814 hip~ 5;
#X obj 1108 746 readsf~ 2;
#X floatatom 1076 297 4 0 0 0 - - - 0;
#X obj 1076 198 tgl 15 0 empty empty empty 17 7 0 10 #fcfcfc #000000 #000000 0 1;
#X obj 1076 320 change;
#X obj 1076 344 sel 0;
#X text 1076 166 BOUTON REPEAT;
#X obj 1076 373 bng 42 250 50 0 empty empty empty 0 -10 0 12 #ff8300 #000000 #000000;
#X floatatom 578 317 4 0 0 0 - - - 0;
#X obj 578 218 tgl 15 0 empty empty empty 17 7 0 10 #fcfcfc #000000 #000000 0 1;
#X obj 578 340 change;
#X text 573 187 COMBINÉ DÉCROCHÉ;
#X obj 578 429 tgl 42 0 empty empty empty 0 -10 0 12 #c6ffc7 #000000 #000000 0 1;
#X obj 603 213 loadbang;
#X obj 1096 194 loadbang;
#X msg 1085 71 \; pd dsp 1;
#X obj 1085 19 loadbang;
#X obj 63 660 metro 2000;
#X obj 238 659 % 11;
#X obj 172 689 sel 10;
#X obj 574 690 bng 42 250 50 0 empty empty empty 0 -10 0 12 #ff0400 #000000 #000000;
#X text 222 688 va jusqu'a 10;
#X obj 46 153 loadbang;
#X obj 46 204 tgl 42 0 empty empty empty 0 -10 0 12 #000000 #ffffff #000000 0 1;
#X obj 45 275 bng 20 250 50 0 empty empty empty 0 -10 0 12 #fcfcfc #000000 #000000;
#X obj 45 308 f;
#X obj 78 307 + 1;
#X obj 111 307 % 181;
#X floatatom 45 335 5 0 0 0 - - - 0;
#X obj 45 377 sel 0 180;
#X obj 75 405 bng 42 250 50 0 empty empty empty 0 -10 0 12 #00ff04 #ff0400 #000000;
#X text 572 666 FAIRE SONNER LE TÉLÉPHONE 1 FOIS;
#X text 62 573 FAIRE SONNER LE TELEPHONE 10 FOIS;
#X obj 46 251 metro 1000;
#X obj 574 836 ggee/shell;
#X obj 578 294 ggee/shell;
#X obj 1076 274 ggee/shell;
#X msg 1076 248 gpioget --bias=pull-up 0 24;
#X obj 1076 222 metro 100;
#X obj 578 244 metro 100;
#X msg 578 270 gpioget --bias=pull-up 0 23;
#X obj 574 765 t a b;
#X msg 574 738 gpioset --drive=open-drain gpiochip0 21=0;
#X msg 605 812 gpioset --drive=open-drain gpiochip0 21=1;
#X floatatom 63 870 4 0 0 0 - - - 0;
#X floatatom 111 871 5 0 0 0 - - - 0;
#X obj 111 890 bng 15 250 50 0 empty empty empty 17 7 0 10 #fcfcfc #000000 #000000;
#X obj 63 847 ggee/shell;
#X msg 63 749 gpioset --drive=open-drain gpiochip0 21=0;
#X msg 86 823 gpioset --drive=open-drain gpiochip0 21=1;
#X obj 86 800 delay 1000;
#X obj 605 789 delay 1000;
#X obj 1085 45 delay 1000;
#X obj 578 484 sel 0 1;
#X obj 75 456 t b b b b b;
#X msg 149 485 0;
#X msg 130 511 0;
#X text 143 417 3 MINUTES !;
#X msg 112 538 1;
#X obj 172 158 delay 1000;
#X msg 285 535 stop;
#X msg 46 178 1;
#X obj 601 515 t b b b b b b b;
#X obj 1108 632 makefilename %d.wav;
#X msg 1108 660 open audio/\$1;
#X obj 1073 882 print fichier audio lu;
#X floatatom 1108 607 5 0 0 0 - - - 0;
#X text 1560 113 Sur le tel 1 et 2 on y met les 40 On démarre le premier défis à 1 Sur le tel 3 et 4 on y met les 40 On démarre le premier défis à 11 Sur le tel 5 et 6 on y met les 40 On démarre le premier défis à 21 Sur le tel 7 et 8 on y met les 40 On démarre le premier défis à 31;
#X obj 1309 417 bng 19 250 50 0 empty empty empty 17 7 0 10 #dfdfdf #000000 #000000;
#X msg 1355 386 read numfichierdebut.txt;
#X obj 1309 291 loadbang;
#X obj 1309 363 t b b b;
#X msg 1332 411 rewind;
#X obj 1309 442 textfile;
#X obj 1309 316 bng 42 250 50 0 empty empty empty 0 -10 0 12 #bbbbbb #ff0400 #000000;
#X obj 1291 508 + 0;
#X floatatom 1309 462 5 0 0 0 - - - 0;
#X obj 1348 462 print 1er fichier audio;
#X obj 1076 552 f;
#X obj 1192 463 f;
#X obj 1221 462 + 1;
#X floatatom 1291 533 5 0 0 0 - - - 0;
#X floatatom 1192 489 5 0 0 0 - - - 0;
#X obj 1192 438 bng 20 250 50 0 empty empty empty 0 -10 0 12 #fcfcfc #000000 #000000;
#X obj 1076 576 t b f;
#X obj 1252 462 % 10;
#X obj 173 776 bng 42 250 50 0 empty empty empty 0 -10 0 12 #ff0400 #00ff04 #000000;
#X obj 63 776 t a b b;
#X text 229 787 ÇA SONNE !;
#X msg 80 178 0;
#X msg 219 715 stop;
#X obj 635 595 t b b b;
#X obj 578 545 t b b b b;
#X text 347 439 quand décroché case verte cochée;
#X msg 81 279 175;
#X obj 578 402 spigot;
#X obj 658 403 spigot;
#X obj 617 368 tgl 20 0 empty empty empty 0 -10 0 12 #fcfcfc #000000 #000000 0 1;
#X obj 640 368 - 1;
#X obj 669 368 abs;
#X obj 697 368 tgl 20 0 empty empty empty 0 -10 0 12 #fcfcfc #000000 #000000 0 1;
#X obj 390 326 tgl 42 0 empty empty empty 17 7 0 10 #ffc7c6 #000000 #000000 0 1;
#X text 356 304 ON PEUT DÉCROCHER;
#X msg 93 507 1;
#X obj 697 312 loadbang;
#X msg 697 339 1;
#X obj 578 368 t f f;
#X obj 725 423 tgl 42 0 empty empty empty 0 -10 0 12 #c6b3c7 #000000 #000000 0 1;
#X obj 725 484 sel 0 1;
#X obj 748 515 t b b b b b b b;
#X obj 725 545 t b b b b;
#X msg 390 565 0;
#X obj 850 581 metro 500;
#X obj 850 555 tgl 20 0 empty empty empty 0 -10 0 12 #fcfcfc #000000 #000000 0 1;
#X obj 826 644 osc~ 440;
#X obj 850 609 tgl 20 0 empty empty empty 0 -10 0 12 #fcfcfc #000000 #000000 0 1;
#X obj 825 669 *~ 0;
#X msg 785 568 0;
#X msg 765 591 0;
#X text 621 439 DÉCROCHÉ !;
#X text 768 435 DÉCROCHÉ AVANT LES 3 MN !;
#X obj 550 319 tgl 20 0 empty empty empty 0 -10 0 12 #fcfcfc #000000 #000000 0 1;
#X connect 6 0 7 0;
#X connect 8 0 40 0;
#X connect 9 0 13 0;
#X connect 9 0 10 0;
#X connect 9 0 42 0;
#X connect 10 0 41 0;
#X connect 11 0 82 0;
#X connect 11 1 12 0;
#X connect 12 0 8 0;
#X connect 14 0 71 0;
#X connect 14 1 9 0;
#X connect 15 0 24 0;
#X connect 16 0 24 0;
#X connect 20 0 22 0;
#X connect 21 0 23 0;
#X connect 22 0 19 0;
#X connect 23 0 19 1;
#X connect 24 0 20 0;
#X connect 24 1 21 0;
#X connect 25 0 27 0;
#X connect 26 0 61 0;
#X connect 27 0 28 0;
#X connect 28 0 30 0;
#X connect 30 0 101 0;
#X connect 31 0 33 0;
#X connect 32 0 62 0;
#X connect 33 0 129 0;
#X connect 35 0 76 0;
#X connect 36 0 32 0;
#X connect 37 0 26 0;
#X connect 39 0 75 0;
#X connect 40 0 14 0;
#X connect 41 0 9 1;
#X connect 42 0 11 0;
#X connect 43 0 65 0;
#X connect 45 0 84 0;
#X connect 46 0 56 0;
#X connect 47 0 48 0;
#X connect 48 0 49 0;
#X connect 48 0 51 0;
#X connect 49 0 50 0;
#X connect 50 0 48 1;
#X connect 51 0 52 0;
#X connect 52 1 53 0;
#X connect 53 0 77 0;
#X connect 56 0 47 0;
#X connect 57 0 5 0;
#X connect 57 1 6 0;
#X connect 58 0 31 0;
#X connect 59 0 25 0;
#X connect 60 0 59 0;
#X connect 61 0 60 0;
#X connect 62 0 63 0;
#X connect 63 0 58 0;
#X connect 64 0 57 0;
#X connect 64 1 74 0;
#X connect 65 0 64 0;
#X connect 66 0 57 0;
#X connect 68 0 69 0;
#X connect 70 0 67 0;
#X connect 70 1 68 0;
#X connect 71 0 110 0;
#X connect 72 0 70 0;
#X connect 73 0 72 0;
#X connect 74 0 66 0;
#X connect 75 0 38 0;
#X connect 76 0 115 0;
#X connect 76 1 85 0;
#X connect 77 1 126 0;
#X connect 77 2 81 0;
#X connect 77 3 79 0;
#X connect 77 4 78 0;
#X connect 78 0 46 0;
#X connect 79 0 48 1;
#X connect 81 0 8 0;
#X connect 82 0 84 0;
#X connect 83 0 82 0;
#X connect 84 0 46 0;
#X connect 85 2 114 0;
#X connect 85 3 112 0;
#X connect 85 4 30 0;
#X connect 85 5 106 0;
#X connect 85 6 83 0;
#X connect 86 0 87 0;
#X connect 87 0 24 0;
#X connect 87 0 88 0;
#X connect 89 0 86 0;
#X connect 91 0 96 0;
#X connect 92 0 96 0;
#X connect 93 0 97 0;
#X connect 94 0 91 0;
#X connect 94 1 95 0;
#X connect 94 2 92 0;
#X connect 95 0 96 0;
#X connect 96 0 99 0;
#X connect 96 0 100 0;
#X connect 97 0 94 0;
#X connect 98 0 104 0;
#X connect 99 0 98 1;
#X connect 101 0 107 0;
#X connect 102 0 103 0;
#X connect 102 0 105 0;
#X connect 103 0 108 0;
#X connect 104 0 101 1;
#X connect 105 0 98 0;
#X connect 106 0 102 0;
#X connect 107 0 15 0;
#X connect 107 1 89 0;
#X connect 108 0 102 1;
#X connect 110 0 70 0;
#X connect 110 1 73 0;
#X connect 110 2 109 0;
#X connect 112 0 46 0;
#X connect 113 0 73 0;
#X connect 114 0 72 0;
#X connect 114 1 113 0;
#X connect 114 2 12 0;
#X connect 115 0 134 0;
#X connect 115 1 84 0;
#X connect 115 2 79 0;
#X connect 115 3 16 0;
#X connect 117 0 48 1;
#X connect 118 0 35 0;
#X connect 119 0 130 0;
#X connect 120 0 121 0;
#X connect 120 0 118 1;
#X connect 121 0 122 0;
#X connect 122 0 123 0;
#X connect 123 0 119 1;
#X connect 124 0 120 0;
#X connect 126 0 124 0;
#X connect 127 0 128 0;
#X connect 128 0 123 0;
#X connect 129 0 118 0;
#X connect 129 1 119 0;
#X connect 130 0 131 0;
#X connect 131 0 133 0;
#X connect 131 1 132 0;
#X connect 132 5 112 0;
#X connect 132 6 136 0;
#X connect 133 1 84 0;
#X connect 133 2 141 0;
#X connect 133 3 140 0;
#X connect 134 0 124 0;
#X connect 135 0 138 0;
#X connect 136 0 135 0;
#X connect 137 0 139 0;
#X connect 138 0 139 1;
#X connect 139 0 20 0;
#X connect 139 0 21 0;
#X connect 140 0 136 0;
#X connect 141 0 138 0;
#X connect 144 0 31 0;
